%TF.GenerationSoftware,KiCad,Pcbnew,(5.1.9)-1*%
%TF.CreationDate,2021-05-27T00:27:26+03:00*%
%TF.ProjectId,5551m,35353531-6d2e-46b6-9963-61645f706362,rev?*%
%TF.SameCoordinates,Original*%
%TF.FileFunction,Copper,L1,Top*%
%TF.FilePolarity,Positive*%
%FSLAX46Y46*%
G04 Gerber Fmt 4.6, Leading zero omitted, Abs format (unit mm)*
G04 Created by KiCad (PCBNEW (5.1.9)-1) date 2021-05-27 00:27:26*
%MOMM*%
%LPD*%
G01*
G04 APERTURE LIST*
%TA.AperFunction,NonConductor*%
%ADD10C,0.300000*%
%TD*%
%TA.AperFunction,ComponentPad*%
%ADD11O,1.600000X1.600000*%
%TD*%
%TA.AperFunction,ComponentPad*%
%ADD12R,1.600000X1.600000*%
%TD*%
%TA.AperFunction,ComponentPad*%
%ADD13C,2.000000*%
%TD*%
%TA.AperFunction,ComponentPad*%
%ADD14O,1.400000X1.400000*%
%TD*%
%TA.AperFunction,ComponentPad*%
%ADD15C,1.400000*%
%TD*%
%TA.AperFunction,SMDPad,CuDef*%
%ADD16R,0.800000X0.900000*%
%TD*%
%TA.AperFunction,ComponentPad*%
%ADD17C,3.000000*%
%TD*%
%TA.AperFunction,ComponentPad*%
%ADD18R,3.000000X3.000000*%
%TD*%
%TA.AperFunction,ComponentPad*%
%ADD19C,1.600000*%
%TD*%
%TA.AperFunction,Conductor*%
%ADD20C,0.250000*%
%TD*%
G04 APERTURE END LIST*
D10*
X127892857Y-88428571D02*
X127750000Y-88357142D01*
X127678571Y-88285714D01*
X127607142Y-88142857D01*
X127607142Y-87714285D01*
X127678571Y-87571428D01*
X127750000Y-87500000D01*
X127892857Y-87428571D01*
X128107142Y-87428571D01*
X128250000Y-87500000D01*
X128321428Y-87571428D01*
X128392857Y-87714285D01*
X128392857Y-88142857D01*
X128321428Y-88285714D01*
X128250000Y-88357142D01*
X128107142Y-88428571D01*
X127892857Y-88428571D01*
X125486785Y-81153571D02*
X124629642Y-81153571D01*
X125058214Y-81153571D02*
X125245714Y-79653571D01*
X125076071Y-79867857D01*
X124915357Y-80010714D01*
X124763571Y-80082142D01*
X126129642Y-81153571D02*
X126254642Y-80153571D01*
X126236785Y-80296428D02*
X126317142Y-80225000D01*
X126468928Y-80153571D01*
X126683214Y-80153571D01*
X126817142Y-80225000D01*
X126870714Y-80367857D01*
X126772500Y-81153571D01*
X126870714Y-80367857D02*
X126960000Y-80225000D01*
X127111785Y-80153571D01*
X127326071Y-80153571D01*
X127460000Y-80225000D01*
X127513571Y-80367857D01*
X127415357Y-81153571D01*
X128129642Y-81153571D02*
X128254642Y-80153571D01*
X128317142Y-79653571D02*
X128236785Y-79725000D01*
X128299285Y-79796428D01*
X128379642Y-79725000D01*
X128317142Y-79653571D01*
X128299285Y-79796428D01*
X128968928Y-80153571D02*
X128843928Y-81153571D01*
X128951071Y-80296428D02*
X129031428Y-80225000D01*
X129183214Y-80153571D01*
X129397500Y-80153571D01*
X129531428Y-80225000D01*
X129585000Y-80367857D01*
X129486785Y-81153571D01*
X124468928Y-82703571D02*
X125040357Y-82703571D01*
X124745714Y-82203571D02*
X124585000Y-83489285D01*
X124638571Y-83632142D01*
X124772500Y-83703571D01*
X124915357Y-83703571D01*
X125415357Y-83703571D02*
X125540357Y-82703571D01*
X125602857Y-82203571D02*
X125522500Y-82275000D01*
X125585000Y-82346428D01*
X125665357Y-82275000D01*
X125602857Y-82203571D01*
X125585000Y-82346428D01*
X126129642Y-83703571D02*
X126254642Y-82703571D01*
X126236785Y-82846428D02*
X126317142Y-82775000D01*
X126468928Y-82703571D01*
X126683214Y-82703571D01*
X126817142Y-82775000D01*
X126870714Y-82917857D01*
X126772500Y-83703571D01*
X126870714Y-82917857D02*
X126960000Y-82775000D01*
X127111785Y-82703571D01*
X127326071Y-82703571D01*
X127460000Y-82775000D01*
X127513571Y-82917857D01*
X127415357Y-83703571D01*
X128710000Y-83632142D02*
X128558214Y-83703571D01*
X128272500Y-83703571D01*
X128138571Y-83632142D01*
X128085000Y-83489285D01*
X128156428Y-82917857D01*
X128245714Y-82775000D01*
X128397500Y-82703571D01*
X128683214Y-82703571D01*
X128817142Y-82775000D01*
X128870714Y-82917857D01*
X128852857Y-83060714D01*
X128120714Y-83203571D01*
X129415357Y-83703571D02*
X129540357Y-82703571D01*
X129504642Y-82989285D02*
X129593928Y-82846428D01*
X129674285Y-82775000D01*
X129826071Y-82703571D01*
X129968928Y-82703571D01*
X139428571Y-84107142D02*
X140571428Y-84107142D01*
X140000000Y-84678571D02*
X140000000Y-83535714D01*
D11*
%TO.P,U1,8*%
%TO.N,VCC*%
X131870000Y-89000000D03*
%TO.P,U1,4*%
X124250000Y-96620000D03*
%TO.P,U1,7*%
%TO.N,Net-(C2-Pad1)*%
X131870000Y-91540000D03*
%TO.P,U1,3*%
%TO.N,Net-(Q1-Pad1)*%
X124250000Y-94080000D03*
%TO.P,U1,6*%
%TO.N,Net-(C2-Pad1)*%
X131870000Y-94080000D03*
%TO.P,U1,2*%
%TO.N,Net-(R1-Pad2)*%
X124250000Y-91540000D03*
%TO.P,U1,5*%
%TO.N,Net-(C1-Pad2)*%
X131870000Y-96620000D03*
D12*
%TO.P,U1,1*%
%TO.N,GND*%
X124250000Y-89000000D03*
%TD*%
D13*
%TO.P,SW1,1*%
%TO.N,GND*%
X120250000Y-89500000D03*
%TO.P,SW1,2*%
%TO.N,Net-(R1-Pad2)*%
X120250000Y-94000000D03*
%TO.P,SW1,1*%
%TO.N,GND*%
X113750000Y-89500000D03*
%TO.P,SW1,2*%
%TO.N,Net-(R1-Pad2)*%
X113750000Y-94000000D03*
%TD*%
D14*
%TO.P,R8,2*%
%TO.N,Net-(R7-Pad1)*%
X136000000Y-97540000D03*
D15*
%TO.P,R8,1*%
%TO.N,VCC*%
X136000000Y-95000000D03*
%TD*%
D14*
%TO.P,R7,2*%
%TO.N,Net-(R6-Pad1)*%
X142250000Y-94960000D03*
D15*
%TO.P,R7,1*%
%TO.N,Net-(R7-Pad1)*%
X142250000Y-97500000D03*
%TD*%
D14*
%TO.P,R6,2*%
%TO.N,Net-(R3-Pad1)*%
X142250000Y-90210000D03*
D15*
%TO.P,R6,1*%
%TO.N,Net-(R6-Pad1)*%
X142250000Y-92750000D03*
%TD*%
D14*
%TO.P,R5,2*%
%TO.N,Net-(C2-Pad1)*%
X136000000Y-83290000D03*
D15*
%TO.P,R5,1*%
%TO.N,Net-(R4-Pad2)*%
X136000000Y-80750000D03*
%TD*%
D14*
%TO.P,R4,2*%
%TO.N,Net-(R4-Pad2)*%
X142250000Y-80710000D03*
D15*
%TO.P,R4,1*%
%TO.N,Net-(R3-Pad2)*%
X142250000Y-83250000D03*
%TD*%
D14*
%TO.P,R3,2*%
%TO.N,Net-(R3-Pad2)*%
X142250000Y-85460000D03*
D15*
%TO.P,R3,1*%
%TO.N,Net-(R3-Pad1)*%
X142250000Y-88000000D03*
%TD*%
D14*
%TO.P,R2,2*%
%TO.N,Net-(Q1-Pad1)*%
X120250000Y-83960000D03*
D15*
%TO.P,R2,1*%
%TO.N,GND*%
X120250000Y-86500000D03*
%TD*%
D14*
%TO.P,R1,2*%
%TO.N,Net-(R1-Pad2)*%
X117540000Y-98500000D03*
D15*
%TO.P,R1,1*%
%TO.N,VCC*%
X115000000Y-98500000D03*
%TD*%
D16*
%TO.P,Q1,3*%
%TO.N,VCC*%
X115500000Y-84000000D03*
%TO.P,Q1,2*%
%TO.N,Net-(J2-Pad1)*%
X114550000Y-82000000D03*
%TO.P,Q1,1*%
%TO.N,Net-(Q1-Pad1)*%
X116450000Y-82000000D03*
%TD*%
D17*
%TO.P,J2,2*%
%TO.N,GND*%
X107250000Y-86330000D03*
D18*
%TO.P,J2,1*%
%TO.N,Net-(J2-Pad1)*%
X107250000Y-81250000D03*
%TD*%
D17*
%TO.P,J1,2*%
%TO.N,VCC*%
X107250000Y-98580000D03*
D18*
%TO.P,J1,1*%
%TO.N,GND*%
X107250000Y-93500000D03*
%TD*%
D19*
%TO.P,C2,2*%
%TO.N,GND*%
X136750000Y-91250000D03*
D12*
%TO.P,C2,1*%
%TO.N,Net-(C2-Pad1)*%
X136750000Y-88750000D03*
%TD*%
D19*
%TO.P,C1,2*%
%TO.N,Net-(C1-Pad2)*%
X130750000Y-100500000D03*
%TO.P,C1,1*%
%TO.N,GND*%
X125750000Y-100500000D03*
%TD*%
D20*
%TO.N,Net-(C1-Pad2)*%
X130750000Y-97740000D02*
X131870000Y-96620000D01*
X130750000Y-100500000D02*
X130750000Y-97740000D01*
%TO.N,GND*%
X120250000Y-86500000D02*
X120250000Y-89500000D01*
X120750000Y-89000000D02*
X120250000Y-89500000D01*
X124250000Y-89000000D02*
X120750000Y-89000000D01*
X124950001Y-101299999D02*
X105299999Y-101299999D01*
X125750000Y-100500000D02*
X124950001Y-101299999D01*
X105299999Y-101299999D02*
X104000000Y-100000000D01*
X104000000Y-100000000D02*
X104000000Y-94000000D01*
X104500000Y-93500000D02*
X107250000Y-93500000D01*
X104000000Y-94000000D02*
X104500000Y-93500000D01*
X107500000Y-89500000D02*
X107250000Y-89750000D01*
X113750000Y-89500000D02*
X107500000Y-89500000D01*
X107250000Y-89750000D02*
X107250000Y-86330000D01*
X107250000Y-93500000D02*
X107250000Y-89750000D01*
X132500000Y-101500000D02*
X131850010Y-102149990D01*
X131850010Y-102149990D02*
X127399990Y-102149990D01*
X135522998Y-96500000D02*
X132500000Y-99522998D01*
X137500000Y-96500000D02*
X135522998Y-96500000D01*
X132500000Y-99522998D02*
X132500000Y-101500000D01*
X137549999Y-92049999D02*
X137549999Y-96450001D01*
X127399990Y-102149990D02*
X125750000Y-100500000D01*
X137549999Y-96450001D02*
X137500000Y-96500000D01*
X136750000Y-91250000D02*
X137549999Y-92049999D01*
%TO.N,Net-(C2-Pad1)*%
X131870000Y-91540000D02*
X131870000Y-94080000D01*
X136750000Y-84040000D02*
X136000000Y-83290000D01*
X136750000Y-88750000D02*
X136750000Y-84040000D01*
X134660000Y-88750000D02*
X131870000Y-91540000D01*
X136750000Y-88750000D02*
X134660000Y-88750000D01*
%TO.N,VCC*%
X124250000Y-96620000D02*
X131870000Y-89000000D01*
X114920000Y-98580000D02*
X115000000Y-98500000D01*
X111670000Y-98580000D02*
X114920000Y-98580000D01*
X107250000Y-98580000D02*
X111670000Y-98580000D01*
X124250000Y-96620000D02*
X120120000Y-100750000D01*
X117250000Y-100750000D02*
X115000000Y-98500000D01*
X120120000Y-100750000D02*
X117250000Y-100750000D01*
X125664999Y-95205001D02*
X124250000Y-96620000D01*
X135794999Y-95205001D02*
X125664999Y-95205001D01*
X136000000Y-95000000D02*
X135794999Y-95205001D01*
X111000000Y-95500000D02*
X111000000Y-93250000D01*
X115750000Y-84250000D02*
X115500000Y-84000000D01*
X114000000Y-98500000D02*
X111000000Y-95500000D01*
X115500000Y-90750000D02*
X115500000Y-84250000D01*
X115000000Y-98500000D02*
X114000000Y-98500000D01*
X114250000Y-92000000D02*
X115500000Y-90750000D01*
X114250000Y-92000000D02*
X112250000Y-92000000D01*
X111750000Y-92500000D02*
X112000000Y-92250000D01*
X112250000Y-92000000D02*
X111750000Y-92500000D01*
X111000000Y-93250000D02*
X111750000Y-92500000D01*
%TO.N,Net-(J2-Pad1)*%
X114550000Y-82000000D02*
X114500000Y-82000000D01*
X113750000Y-81250000D02*
X107250000Y-81250000D01*
X114500000Y-82000000D02*
X113750000Y-81250000D01*
%TO.N,Net-(Q1-Pad1)*%
X118290000Y-82000000D02*
X120250000Y-83960000D01*
X116450000Y-82000000D02*
X118290000Y-82000000D01*
X125670000Y-94080000D02*
X124250000Y-94080000D01*
X126250000Y-93500000D02*
X125670000Y-94080000D01*
X126250000Y-88000000D02*
X126250000Y-93500000D01*
X125250000Y-87000000D02*
X126250000Y-88000000D01*
X123290000Y-87000000D02*
X125250000Y-87000000D01*
X120250000Y-83960000D02*
X123290000Y-87000000D01*
%TO.N,Net-(R1-Pad2)*%
X120250000Y-97750000D02*
X120250000Y-94000000D01*
X119500000Y-98500000D02*
X120250000Y-97750000D01*
X117540000Y-98500000D02*
X119500000Y-98500000D01*
X120250000Y-94000000D02*
X120250000Y-92250000D01*
X120960000Y-91540000D02*
X124250000Y-91540000D01*
X120250000Y-92250000D02*
X120960000Y-91540000D01*
%TO.N,Net-(R3-Pad2)*%
X142250000Y-83250000D02*
X142250000Y-85460000D01*
%TO.N,Net-(R3-Pad1)*%
X142250000Y-88000000D02*
X142250000Y-90210000D01*
%TO.N,Net-(R4-Pad2)*%
X142210000Y-80750000D02*
X142250000Y-80710000D01*
X136000000Y-80750000D02*
X142210000Y-80750000D01*
%TO.N,Net-(R6-Pad1)*%
X142250000Y-92750000D02*
X142250000Y-94960000D01*
%TO.N,Net-(R7-Pad1)*%
X136040000Y-97500000D02*
X136000000Y-97540000D01*
X142210000Y-97540000D02*
X142250000Y-97500000D01*
X136000000Y-97540000D02*
X142210000Y-97540000D01*
%TD*%
M02*
